# xmcd CD database file
# 
# Track frame offsets:
#       150
#       13855
#       17562
#       28117
#       31130
#       49512
#       56505
#       82677
#       97732
#       116085
#       125617
#       131867
#       157147
#       172060
#       186060
#       212910
# 
# Disc length: 2910 seconds
# 
# Revision: 2
# Processed by: cddbd v1.4PL0 Copyright (c) Steve Scherf et al.
# Submitted via: Steven_Parker 1
# 
DISCID=d20b5c10
DTITLE=Rev. Billy C. Wirtz - Songs of Faith and Inflammation
DYEAR=1996
DGENRE=Comedy
TTITLE0=Right Wing Roundup
TTITLE1=Beaver Falls, PA
TTITLE2=It's a Gas
TTITLE3=Positive Country
TTITLE4=Grandma vs. the Crusher
TTITLE5=We Dismember These
TTITLE6=Plato's Retreat
TTITLE7=S-I-S-S-Y
TTITLE8=Song for Judy
TTITLE9=Stick Out Your Can
TTITLE10=Everybody Must Get Stones
TTITLE11=Cousin Cupcake's Got the Blues
TTITLE12=Actual Results May Vary
TTITLE13=Hillbilly Sue
TTITLE14=There is Something On Your Mind
TTITLE15=Impure Thoughts
EXTD=
EXTT0=
EXTT1=
EXTT2=
EXTT3=
EXTT4=
EXTT5=
EXTT6=
EXTT7=
EXTT8=
EXTT9=
EXTT10=
EXTT11=
EXTT12=
EXTT13=
EXTT14=
EXTT15=
PLAYORDER=
